<svg width="16" height="16" viewBox="0 0 16 16" fill="none" xmlns="http://www.w3.org/2000/svg">
<path d="M6.84586 12.9604C6.55311 12.6677 6.40673 12.3093 6.40673 11.8853C6.40673 11.4613 6.55311 11.1029 6.84586 10.8102C7.13862 10.5174 7.497 10.371 7.921 10.371C8.34499 10.371 8.70337 10.5174 8.99613 10.8102C9.28889 11.1029 9.43527 11.4613 9.43527 11.8853C9.43527 12.3093 9.28889 12.6677 8.99613 12.9604C8.70337 13.2532 8.34499 13.3996 7.921 13.3996C7.497 13.3996 7.13862 13.2532 6.84586 12.9604ZM10.0791 7.10021C10.7604 7.34249 11.3786 7.67563 11.9338 8.09963C12.1357 8.25105 12.2393 8.45053 12.2445 8.69807C12.2498 8.9456 12.1614 9.16002 11.9792 9.34133C11.8076 9.51295 11.5956 9.60138 11.3432 9.60663C11.0909 9.61188 10.8637 9.54363 10.6618 9.4019C10.2782 9.13943 9.85421 8.93248 9.38984 8.78105C8.92546 8.62962 8.43585 8.55391 7.921 8.55391C7.40614 8.55391 6.91653 8.62962 6.45215 8.78105C5.98778 8.93248 5.56378 9.13943 5.18017 9.4019C4.97827 9.54323 4.75112 9.60885 4.49875 9.59875C4.24637 9.58866 4.03437 9.4978 3.86275 9.32618C3.69114 9.14447 3.60533 8.93005 3.60533 8.68292C3.60533 8.4358 3.70628 8.23632 3.90818 8.08448C4.46341 7.66049 5.08184 7.32977 5.76346 7.09234C6.44509 6.8549 7.16426 6.73638 7.921 6.73678C8.67773 6.73719 9.39711 6.85833 10.0791 7.10021ZM11.4868 3.72339C12.6025 4.13729 13.6046 4.72281 14.4929 5.47994C14.6948 5.65156 14.8008 5.86356 14.8109 6.11593C14.821 6.36831 14.7352 6.58536 14.5535 6.76707C14.3819 6.93869 14.1699 7.02712 13.9175 7.03237C13.6651 7.03762 13.438 6.95928 13.2361 6.79736C12.5092 6.20174 11.6942 5.73999 10.7908 5.4121C9.88753 5.08421 8.93091 4.92007 7.921 4.91966C6.91108 4.91926 5.95467 5.08341 5.05176 5.4121C4.14885 5.7408 3.33357 6.20255 2.60591 6.79736C2.40401 6.95888 2.17687 7.03722 1.92449 7.03237C1.67211 7.02752 1.46011 6.93909 1.2885 6.76707C1.10678 6.58536 1.02098 6.36831 1.03107 6.11593C1.04117 5.86356 1.14716 5.65156 1.34907 5.47994C2.23744 4.72281 3.23948 4.13729 4.35519 3.72339C5.47091 3.30949 6.65951 3.10254 7.921 3.10254C9.18248 3.10254 10.3713 3.30949 11.4874 3.72339" fill="#030169"/>
</svg>
